GSerifWideLow-325.ufo
<glyph name="zero" format="1">
  <advance width="678"/>
  <unicode hex="0030"/>
  <outline>
    <contour>
      <point x="339" y="596" type="curve"/>
      <point x="175" y="596"/>
      <point x="50" y="469"/>
      <point x="50" y="293" type="curve" smooth="yes"/>
      <point x="50" y="117"/>
      <point x="175" y="-11"/>
      <point x="339" y="-11" type="curve"/>
      <point x="511" y="-11"/>
      <point x="629" y="116"/>
      <point x="629" y="292" type="curve" smooth="yes"/>
      <point x="629" y="468"/>
      <point x="511" y="596"/>
    </contour>
    <contour>
      <point x="339" y="524" type="curve"/>
      <point x="464" y="524"/>
      <point x="537" y="432"/>
      <point x="537" y="292" type="curve" smooth="yes"/>
      <point x="537" y="153"/>
      <point x="464" y="61"/>
      <point x="339" y="61" type="curve"/>
      <point x="221" y="61"/>
      <point x="142" y="153"/>
      <point x="142" y="293" type="curve" smooth="yes"/>
      <point x="142" y="432"/>
      <point x="221" y="524"/>
    </contour>
  </outline>
</glyph>
<glyph name="one" format="1">
  <advance width="457"/>
  <unicode hex="0031"/>
  <outline>
    <contour>
      <point x="65" y="70" type="line"/>
      <point x="65" y="0" type="line"/>
      <point x="421" y="0" type="line"/>
      <point x="421" y="70" type="line"/>
      <point x="287" y="70" type="line"/>
      <point x="287" y="70" type="line"/>
      <point x="199" y="70" type="line"/>
      <point x="199" y="70" type="line"/>
    </contour>
    <contour>
      <point x="199" y="577" type="line"/>
      <point x="199" y="0" type="line"/>
      <point x="287" y="0" type="line"/>
      <point x="287" y="587" type="line"/>
      <point x="207" y="587" type="line"/>
      <point x="55" y="556" type="line"/>
      <point x="55" y="486" type="line"/>
      <point x="277" y="523" type="line"/>
    </contour>
  </outline>
</glyph>
<glyph name="three" format="1">
  <advance width="619"/>
  <unicode hex="0033"/>
  <outline>
    <contour>
      <point x="341" y="259" type="line"/>
      <point x="475" y="259"/>
      <point x="564" y="194"/>
      <point x="564" y="81" type="curve" smooth="yes"/>
      <point x="564" y="-62"/>
      <point x="450" y="-134"/>
      <point x="313" y="-134" type="curve" smooth="yes"/>
      <point x="171" y="-134"/>
      <point x="68" y="-63"/>
      <point x="51" y="80" type="curve"/>
      <point x="145" y="80" type="line"/>
      <point x="159" y="-22"/>
      <point x="223" y="-63"/>
      <point x="313" y="-63" type="curve" smooth="yes"/>
      <point x="402" y="-63"/>
      <point x="473" y="-22"/>
      <point x="473" y="81" type="curve" smooth="yes"/>
      <point x="473" y="182"/>
      <point x="410" y="211"/>
      <point x="311" y="211" type="curve" smooth="yes"/>
      <point x="221" y="211" type="line"/>
      <point x="221" y="281" type="line"/>
      <point x="300" y="281" type="line" smooth="yes"/>
      <point x="391" y="281"/>
      <point x="442" y="331"/>
      <point x="442" y="414" type="curve" smooth="yes"/>
      <point x="442" y="487"/>
      <point x="401" y="525"/>
      <point x="322" y="525" type="curve" smooth="yes"/>
      <point x="240" y="525"/>
      <point x="191" y="476"/>
      <point x="177" y="390" type="curve"/>
      <point x="85" y="390" type="line"/>
      <point x="102" y="516"/>
      <point x="192" y="596"/>
      <point x="322" y="596" type="curve" smooth="yes"/>
      <point x="451" y="596"/>
      <point x="528" y="524"/>
      <point x="528" y="414" type="curve" smooth="yes"/>
      <point x="528" y="311"/>
      <point x="446" y="245"/>
      <point x="317" y="245" type="curve"/>
    </contour>
  </outline>
</glyph>
<glyph name="five" format="1">
  <advance width="603"/>
  <unicode hex="0035"/>
  <outline>
    <contour>
      <point x="177" y="284" type="line"/>
      <point x="230" y="536" type="line"/>
      <point x="200" y="515" type="line"/>
      <point x="513" y="515" type="line"/>
      <point x="513" y="587" type="line"/>
      <point x="161" y="587" type="line"/>
      <point x="98" y="284" type="line"/>
      <point x="98" y="240" type="line"/>
      <point x="215" y="240" type="line" smooth="yes"/>
      <point x="382" y="240"/>
      <point x="465" y="194"/>
      <point x="465" y="83" type="curve" smooth="yes"/>
      <point x="465" y="-17"/>
      <point x="396" y="-63"/>
      <point x="310" y="-63" type="curve" smooth="yes"/>
      <point x="221" y="-63"/>
      <point x="156" y="-22"/>
      <point x="142" y="81" type="curve"/>
      <point x="48" y="81" type="line"/>
      <point x="65" y="-63"/>
      <point x="169" y="-134"/>
      <point x="310" y="-134" type="curve" smooth="yes"/>
      <point x="443" y="-134"/>
      <point x="556" y="-58"/>
      <point x="556" y="83" type="curve" smooth="yes"/>
      <point x="556" y="224"/>
      <point x="452" y="312"/>
      <point x="246" y="312" type="curve" smooth="yes"/>
      <point x="132" y="312" type="line"/>
    </contour>
  </outline>
</glyph>
<glyph name="seven" format="1">
  <advance width="524"/>
  <unicode hex="0037"/>
  <outline>
    <contour>
      <point x="107" y="-127" type="line"/>
      <point x="285" y="127"/>
      <point x="401" y="343"/>
      <point x="401" y="534" type="curve"/>
      <point x="424" y="515" type="line"/>
      <point x="118" y="515" type="line"/>
      <point x="118" y="515" type="line"/>
      <point x="118" y="383" type="line"/>
      <point x="38" y="383" type="line"/>
      <point x="38" y="587" type="line"/>
      <point x="483" y="587" type="line"/>
      <point x="483" y="533" type="line" smooth="yes"/>
      <point x="483" y="339"/>
      <point x="379" y="120"/>
      <point x="214" y="-127" type="curve"/>
    </contour>
  </outline>
</glyph>
<glyph name="D" format="1">
  <advance width="819"/>
  <unicode hex="0044"/>
  <outline>
    <contour>
      <point x="153" y="0" type="line"/>
      <point x="241" y="0" type="line"/>
      <point x="241" y="710" type="line"/>
      <point x="153" y="710" type="line"/>
    </contour>
    <contour>
      <point x="756" y="357" type="curve" smooth="yes"/>
      <point x="756" y="574"/>
      <point x="604" y="710"/>
      <point x="382" y="710" type="curve" smooth="yes"/>
      <point x="53" y="710" type="line"/>
      <point x="53" y="640" type="line"/>
      <point x="153" y="640" type="line"/>
      <point x="153" y="641"/>
      <point x="153" y="641"/>
      <point x="153" y="640" type="curve"/>
      <point x="189" y="640" type="line"/>
      <point x="382" y="640" type="line" smooth="yes"/>
      <point x="556" y="640"/>
      <point x="664" y="538"/>
      <point x="664" y="357" type="curve" smooth="yes"/>
      <point x="664" y="176"/>
      <point x="556" y="70"/>
      <point x="382" y="70" type="curve" smooth="yes"/>
      <point x="166" y="70" type="line"/>
      <point x="153" y="70" type="line"/>
      <point x="153" y="70" type="line"/>
      <point x="53" y="70" type="line"/>
      <point x="53" y="0" type="line"/>
      <point x="382" y="0" type="line" smooth="yes"/>
      <point x="604" y="0"/>
      <point x="756" y="141"/>
    </contour>
  </outline>
</glyph>
<glyph name="H" format="1">
  <advance width="850"/>
  <unicode hex="0048"/>
  <outline>
    <contour>
      <point x="153" y="0" type="line"/>
      <point x="241" y="0" type="line"/>
      <point x="241" y="710" type="line"/>
      <point x="153" y="710" type="line"/>
    </contour>
    <contour>
      <point x="53" y="70" type="line"/>
      <point x="53" y="0" type="line"/>
      <point x="341" y="0" type="line"/>
      <point x="341" y="70" type="line"/>
      <point x="241" y="70" type="line"/>
      <point x="241" y="70" type="line"/>
      <point x="153" y="70" type="line"/>
      <point x="153" y="70" type="line"/>
    </contour>
    <contour>
      <point x="53" y="710" type="line"/>
      <point x="53" y="640" type="line"/>
      <point x="153" y="640" type="line"/>
      <point x="153" y="640" type="line"/>
      <point x="241" y="640" type="line"/>
      <point x="241" y="640" type="line"/>
      <point x="341" y="640" type="line"/>
      <point x="341" y="710" type="line"/>
    </contour>
    <contour>
      <point x="609" y="0" type="line"/>
      <point x="697" y="0" type="line"/>
      <point x="697" y="710" type="line"/>
      <point x="609" y="710" type="line"/>
    </contour>
    <contour>
      <point x="509" y="70" type="line"/>
      <point x="509" y="0" type="line"/>
      <point x="797" y="0" type="line"/>
      <point x="797" y="70" type="line"/>
      <point x="697" y="70" type="line"/>
      <point x="697" y="70" type="line"/>
      <point x="609" y="70" type="line"/>
      <point x="609" y="70" type="line"/>
    </contour>
    <contour>
      <point x="509" y="710" type="line"/>
      <point x="509" y="640" type="line"/>
      <point x="609" y="640" type="line"/>
      <point x="609" y="640" type="line"/>
      <point x="697" y="640" type="line"/>
      <point x="697" y="640" type="line"/>
      <point x="797" y="640" type="line"/>
      <point x="797" y="710" type="line"/>
    </contour>
    <contour>
      <point x="213" y="400" type="line"/>
      <point x="213" y="332" type="line"/>
      <point x="637" y="332" type="line"/>
      <point x="637" y="400" type="line"/>
    </contour>
  </outline>
</glyph>
<glyph name="M" format="1">
  <advance width="992"/>
  <unicode hex="004D"/>
  <outline>
    <contour>
      <point x="839" y="640" type="line"/>
      <point x="839" y="640" type="line"/>
      <point x="939" y="640" type="line"/>
      <point x="939" y="710" type="line"/>
      <point x="703" y="710" type="line"/>
      <point x="475" y="69" type="line"/>
      <point x="518" y="72" type="line"/>
      <point x="296" y="710" type="line"/>
      <point x="53" y="710" type="line"/>
      <point x="53" y="640" type="line"/>
      <point x="153" y="640" type="line"/>
      <point x="153" y="640" type="line"/>
      <point x="153" y="0" type="line"/>
      <point x="228" y="0" type="line"/>
      <point x="228" y="695" type="line"/>
      <point x="221" y="666" type="line"/>
      <point x="465" y="-2" type="line"/>
      <point x="519" y="-2" type="line"/>
      <point x="763" y="666" type="line"/>
      <point x="756" y="695" type="line"/>
      <point x="756" y="0" type="line"/>
      <point x="839" y="0" type="line"/>
    </contour>
    <contour>
      <point x="939" y="0" type="line"/>
      <point x="939" y="70" type="line"/>
      <point x="839" y="70" type="line"/>
      <point x="839" y="70" type="line"/>
      <point x="756" y="70" type="line"/>
      <point x="756" y="70" type="line"/>
      <point x="669" y="70" type="line"/>
      <point x="669" y="0" type="line"/>
    </contour>
    <contour>
      <point x="315" y="0" type="line"/>
      <point x="315" y="70" type="line"/>
      <point x="228" y="70" type="line"/>
      <point x="228" y="70" type="line"/>
      <point x="153" y="70" type="line"/>
      <point x="153" y="70" type="line"/>
      <point x="53" y="70" type="line"/>
      <point x="53" y="0" type="line"/>
    </contour>
  </outline>
</glyph>
<glyph name="W" format="1">
  <advance width="1102"/>
  <unicode hex="0057"/>
  <outline>
    <contour>
      <point x="158" y="710" type="line"/>
      <point x="72" y="710" type="line"/>
      <point x="279" y="0" type="line"/>
      <point x="351" y="0" type="line"/>
      <point x="350" y="32" type="line"/>
    </contour>
    <contour>
      <point x="22" y="710" type="line"/>
      <point x="22" y="640" type="line"/>
      <point x="92" y="640" type="line"/>
      <point x="92" y="640" type="line"/>
      <point x="179" y="640" type="line"/>
      <point x="179" y="640" type="line"/>
      <point x="278" y="640" type="line"/>
      <point x="278" y="710" type="line"/>
    </contour>
    <contour>
      <point x="1032" y="710" type="line"/>
      <point x="955" y="710" type="line"/>
      <point x="750" y="0" type="line"/>
      <point x="824" y="0" type="line"/>
    </contour>
    <contour>
      <point x="1082" y="710" type="line"/>
      <point x="835" y="710" type="line"/>
      <point x="835" y="640" type="line"/>
      <point x="935" y="640" type="line"/>
      <point x="935" y="640" type="line"/>
      <point x="1012" y="640" type="line"/>
      <point x="1012" y="640" type="line"/>
      <point x="1082" y="640" type="line"/>
    </contour>
    <contour>
      <point x="542" y="658" type="line"/>
      <point x="717" y="0" type="line"/>
      <point x="791" y="0" type="line"/>
      <point x="788" y="32" type="line"/>
      <point x="609" y="710" type="line"/>
      <point x="504" y="710" type="line"/>
      <point x="311" y="0" type="line"/>
      <point x="384" y="0" type="line"/>
      <point x="566" y="676" type="line"/>
    </contour>
  </outline>
</glyph>
<glyph name="f" format="1">
  <advance width="437"/>
  <unicode hex="0066"/>
  <outline>
    <contour>
      <point x="36" y="70" type="line"/>
      <point x="36" y="0" type="line"/>
      <point x="366" y="0" type="line"/>
      <point x="366" y="70" type="line"/>
      <point x="231" y="70" type="line"/>
      <point x="231" y="70" type="line"/>
      <point x="146" y="70" type="line"/>
      <point x="146" y="70" type="line"/>
    </contour>
    <contour>
      <point x="36" y="528" type="line"/>
      <point x="36" y="458" type="line"/>
      <point x="401" y="458" type="line"/>
      <point x="401" y="528" type="line"/>
    </contour>
    <contour>
      <point x="440" y="624" type="curve"/>
      <point x="523" y="624" type="line"/>
      <point x="509" y="733"/>
      <point x="425" y="761"/>
      <point x="345" y="761" type="curve" smooth="yes"/>
      <point x="254" y="761"/>
      <point x="146" y="711"/>
      <point x="146" y="560" type="curve" smooth="yes"/>
      <point x="146" y="0" type="line"/>
      <point x="231" y="0" type="line"/>
      <point x="231" y="560" type="line" smooth="yes"/>
      <point x="231" y="658"/>
      <point x="286" y="694"/>
      <point x="345" y="694" type="curve" smooth="yes"/>
      <point x="399" y="694"/>
      <point x="430" y="673"/>
    </contour>
  </outline>
</glyph>
<glyph name="j" format="1">
  <advance width="349"/>
  <unicode hex="006A"/>
  <outline>
    <contour>
      <point x="181" y="640" type="curve" smooth="yes"/>
      <point x="214" y="640"/>
      <point x="239" y="662"/>
      <point x="239" y="698" type="curve" smooth="yes"/>
      <point x="239" y="734"/>
      <point x="214" y="756"/>
      <point x="181" y="756" type="curve" smooth="yes"/>
      <point x="148" y="756"/>
      <point x="123" y="734"/>
      <point x="123" y="698" type="curve" smooth="yes"/>
      <point x="123" y="662"/>
      <point x="148" y="640"/>
    </contour>
    <contour>
      <point x="226" y="-50" type="curve" smooth="yes"/>
      <point x="226" y="528" type="line"/>
      <point x="41" y="528" type="line"/>
      <point x="41" y="454" type="line"/>
      <point x="141" y="454" type="line"/>
      <point x="141" y="454" type="line"/>
      <point x="141" y="-50" type="line" smooth="yes"/>
      <point x="141" y="-133"/>
      <point x="91" y="-164"/>
      <point x="22" y="-164" type="curve"/>
      <point x="-13" y="-164"/>
      <point x="-43" y="-158"/>
      <point x="-66" y="-153" type="curve"/>
      <point x="-66" y="-229" type="line"/>
      <point x="-44" y="-235"/>
      <point x="-7" y="-239"/>
      <point x="27" y="-239" type="curve" smooth="yes"/>
      <point x="126" y="-239"/>
      <point x="226" y="-197"/>
    </contour>
  </outline>
</glyph>
<glyph name="n" format="1">
  <advance width="681"/>
  <unicode hex="006E"/>
  <outline>
    <contour>
      <point x="46" y="0" type="line"/>
      <point x="301" y="0" type="line"/>
      <point x="301" y="70" type="line"/>
      <point x="221" y="70" type="line"/>
      <point x="221" y="70" type="line"/>
      <point x="136" y="70" type="line"/>
      <point x="136" y="70" type="line"/>
      <point x="46" y="70" type="line"/>
    </contour>
    <contour>
      <point x="398" y="0" type="line"/>
      <point x="653" y="0" type="line"/>
      <point x="653" y="70" type="line"/>
      <point x="563" y="70" type="line"/>
      <point x="563" y="70" type="line"/>
      <point x="478" y="70" type="line"/>
      <point x="478" y="70" type="line"/>
      <point x="398" y="70" type="line"/>
    </contour>
    <contour>
      <point x="382" y="463" type="curve" smooth="yes"/>
      <point x="455" y="463"/>
      <point x="478" y="430"/>
      <point x="478" y="364" type="curve" smooth="yes"/>
      <point x="478" y="0" type="line"/>
      <point x="563" y="0" type="line"/>
      <point x="563" y="381" type="line" smooth="yes"/>
      <point x="563" y="489"/>
      <point x="495" y="538"/>
      <point x="394" y="538" type="curve" smooth="yes"/>
      <point x="290" y="538"/>
      <point x="224" y="484"/>
      <point x="146" y="352" type="curve"/>
      <point x="184" y="326" type="line"/>
      <point x="233" y="418"/>
      <point x="303" y="463"/>
    </contour>
    <contour>
      <point x="46" y="528" type="line"/>
      <point x="46" y="454" type="line"/>
      <point x="136" y="454" type="line"/>
      <point x="136" y="454" type="line"/>
      <point x="136" y="0" type="line"/>
      <point x="221" y="0" type="line"/>
      <point x="221" y="412" type="line"/>
      <point x="210" y="424" type="line"/>
      <point x="210" y="528" type="line"/>
    </contour>
  </outline>
</glyph>
<glyph name="q" format="1">
  <advance width="670"/>
  <unicode hex="0071"/>
  <outline>
    <contour>
      <point x="562" y="528" type="line"/>
      <point x="487" y="528" type="line"/>
      <point x="487" y="422" type="line"/>
      <point x="477" y="402" type="line"/>
      <point x="477" y="-230" type="line"/>
      <point x="562" y="-230" type="line"/>
    </contour>
    <contour>
      <point x="143" y="262" type="curve" smooth="yes"/>
      <point x="143" y="384"/>
      <point x="199" y="466"/>
      <point x="305" y="466" type="curve" smooth="yes"/>
      <point x="387" y="466"/>
      <point x="459" y="418"/>
      <point x="498" y="322" type="curve"/>
      <point x="543" y="352" type="line"/>
      <point x="479" y="484"/>
      <point x="416" y="538"/>
      <point x="307" y="538" type="curve" smooth="yes"/>
      <point x="153" y="538"/>
      <point x="53" y="425"/>
      <point x="53" y="262" type="curve" smooth="yes"/>
      <point x="53" y="98"/>
      <point x="147" y="-11"/>
      <point x="295" y="-11" type="curve" smooth="yes"/>
      <point x="405" y="-11"/>
      <point x="465" y="48"/>
      <point x="543" y="175" type="curve"/>
      <point x="499" y="204" type="line"/>
      <point x="455" y="112"/>
      <point x="385" y="61"/>
      <point x="302" y="61" type="curve" smooth="yes"/>
      <point x="199" y="61"/>
      <point x="143" y="139"/>
    </contour>
    <contour>
      <point x="652" y="-230" type="line"/>
      <point x="652" y="-156" type="line"/>
      <point x="562" y="-156" type="line"/>
      <point x="562" y="-156" type="line"/>
      <point x="477" y="-156" type="line"/>
      <point x="477" y="-156" type="line"/>
      <point x="367" y="-156" type="line"/>
      <point x="367" y="-230" type="line"/>
    </contour>
  </outline>
</glyph>
<glyph name="t" format="1">
  <advance width="475"/>
  <unicode hex="0074"/>
  <outline>
    <contour>
      <point x="18" y="458" type="line"/>
      <point x="18" y="528" type="line"/>
      <point x="135" y="528" type="line"/>
      <point x="135" y="528" type="line"/>
      <point x="175" y="528" type="line"/>
      <point x="425" y="528" type="line"/>
      <point x="425" y="458" type="line"/>
    </contour>
    <contour>
      <point x="220" y="178" type="line"/>
      <point x="220" y="95"/>
      <point x="273" y="64"/>
      <point x="346" y="64" type="curve" smooth="yes"/>
      <point x="384" y="64"/>
      <point x="415" y="68"/>
      <point x="437" y="73" type="curve"/>
      <point x="437" y="-1" type="line"/>
      <point x="414" y="-7"/>
      <point x="381" y="-11"/>
      <point x="339" y="-11" type="curve" smooth="yes"/>
      <point x="238" y="-11"/>
      <point x="135" y="31"/>
      <point x="135" y="178" type="curve" smooth="yes"/>
      <point x="135" y="475" type="line"/>
      <point x="135" y="491" type="line"/>
      <point x="135" y="699" type="line"/>
      <point x="220" y="699" type="line"/>
    </contour>
  </outline>
</glyph>
<glyph name="w" format="1">
  <advance width="857"/>
  <unicode hex="0077"/>
  <outline>
    <contour>
      <point x="258" y="528" type="line"/>
      <point x="10" y="528" type="line"/>
      <point x="10" y="458" type="line"/>
      <point x="72" y="458" type="line"/>
      <point x="72" y="458" type="line"/>
      <point x="159" y="458" type="line"/>
      <point x="159" y="458" type="line"/>
      <point x="258" y="458" type="line"/>
    </contour>
    <contour>
      <point x="275" y="0" type="line"/>
      <point x="273" y="37" type="line"/>
      <point x="140" y="528" type="line"/>
      <point x="52" y="528" type="line"/>
      <point x="204" y="0" type="line"/>
    </contour>
    <contour>
      <point x="599" y="0" type="line"/>
      <point x="653" y="0" type="line"/>
      <point x="804" y="528" type="line"/>
      <point x="730" y="528" type="line"/>
      <point x="601" y="45" type="line"/>
    </contour>
    <contour>
      <point x="613" y="528" type="line"/>
      <point x="613" y="458" type="line"/>
      <point x="711" y="458" type="line"/>
      <point x="711" y="458" type="line"/>
      <point x="784" y="458" type="line"/>
      <point x="784" y="458" type="line"/>
      <point x="847" y="458" type="line"/>
      <point x="847" y="528" type="line"/>
    </contour>
    <contour>
      <point x="416" y="453" type="line"/>
      <point x="554" y="0" type="line"/>
      <point x="625" y="0" type="line"/>
      <point x="621" y="37" type="line"/>
      <point x="475" y="528" type="line"/>
      <point x="396" y="528" type="line"/>
      <point x="251" y="44" type="line"/>
      <point x="249" y="0" type="line"/>
      <point x="303" y="0" type="line"/>
      <point x="442" y="460" type="line"/>
    </contour>
  </outline>
</glyph>
<glyph name="G.alt" format="1">
  <advance width="840"/>
  <outline>
    <contour>
      <point x="692" y="282" type="curve"/>
      <point x="419" y="282" type="line"/>
      <point x="419" y="352" type="line"/>
      <point x="752" y="352" type="line"/>
      <point x="752" y="0" type="line"/>
      <point x="697" y="0" type="line"/>
      <point x="675" y="194" type="line"/>
      <point x="683" y="216"/>
      <point x="680" y="231"/>
      <point x="701" y="256" type="curve"/>
      <point x="668" y="72"/>
      <point x="566" y="-10"/>
      <point x="415" y="-10" type="curve" smooth="yes"/>
      <point x="212" y="-10"/>
      <point x="63" y="137"/>
      <point x="63" y="355" type="curve" smooth="yes"/>
      <point x="63" y="569"/>
      <point x="221" y="720"/>
      <point x="426" y="720" type="curve" smooth="yes"/>
      <point x="587" y="720"/>
      <point x="718" y="636"/>
      <point x="741" y="485" type="curve"/>
      <point x="642" y="485" type="line"/>
      <point x="623" y="594"/>
      <point x="535" y="645"/>
      <point x="426" y="645" type="curve" smooth="yes"/>
      <point x="272" y="645"/>
      <point x="160" y="530"/>
      <point x="160" y="355" type="curve" smooth="yes"/>
      <point x="160" y="175"/>
      <point x="263" y="65"/>
      <point x="415" y="65" type="curve" smooth="yes"/>
      <point x="548" y="65"/>
      <point x="652" y="155"/>
      <point x="652" y="306" type="curve" smooth="yes"/>
      <point x="652" y="329" type="line"/>
      <point x="667" y="322"/>
      <point x="692" y="307"/>
    </contour>
  </outline>
</glyph>
<glyph name="G.alt3" format="1">
  <advance width="828"/>
  <outline>
    <contour>
      <point x="813" y="282" type="line"/>
      <point x="465" y="282" type="line"/>
      <point x="465" y="352" type="line"/>
      <point x="813" y="352" type="line"/>
    </contour>
    <contour>
      <point x="722" y="300" type="line"/>
      <point x="722" y="0" type="line"/>
      <point x="645" y="0" type="line"/>
      <point x="645" y="208" type="line"/>
      <point x="660" y="229"/>
      <point x="664" y="239"/>
      <point x="688" y="264" type="curve"/>
      <point x="652" y="80"/>
      <point x="553" y="-10"/>
      <point x="405" y="-10" type="curve"/>
      <point x="210" y="-10"/>
      <point x="63" y="137"/>
      <point x="63" y="355" type="curve" smooth="yes"/>
      <point x="63" y="569"/>
      <point x="220" y="720"/>
      <point x="426" y="720" type="curve" smooth="yes"/>
      <point x="591" y="720"/>
      <point x="719" y="633"/>
      <point x="741" y="485" type="curve"/>
      <point x="641" y="485" type="line"/>
      <point x="621" y="590"/>
      <point x="536" y="645"/>
      <point x="426" y="645" type="curve" smooth="yes"/>
      <point x="271" y="645"/>
      <point x="160" y="530"/>
      <point x="160" y="355" type="curve" smooth="yes"/>
      <point x="160" y="175"/>
      <point x="261" y="65"/>
      <point x="405" y="65" type="curve"/>
      <point x="527" y="65"/>
      <point x="633" y="153"/>
      <point x="633" y="304" type="curve" smooth="yes"/>
      <point x="633" y="327" type="line"/>
    </contour>
  </outline>
</glyph>
<glyph name="one.alt" format="1">
  <advance width="433"/>
  <outline>
    <contour>
      <point x="195" y="577" type="line"/>
      <point x="195" y="0" type="line"/>
      <point x="283" y="0" type="line"/>
      <point x="283" y="587" type="line"/>
      <point x="203" y="587" type="line"/>
      <point x="60" y="552" type="line"/>
      <point x="60" y="482" type="line"/>
      <point x="273" y="523" type="line"/>
    </contour>
  </outline>
</glyph>
<glyph name="s.srf" format="1">
  <advance width="519"/>
  <outline>
    <contour>
      <point x="88" y="140" type="line"/>
      <point x="117" y="23"/>
      <point x="208" y="-11"/>
      <point x="290" y="-11" type="curve" smooth="yes"/>
      <point x="404" y="-11"/>
      <point x="476" y="52"/>
      <point x="476" y="149" type="curve" smooth="yes"/>
      <point x="476" y="347"/>
      <point x="142" y="263"/>
      <point x="142" y="390" type="curve" smooth="yes"/>
      <point x="142" y="436"/>
      <point x="178" y="468"/>
      <point x="238" y="468" type="curve" smooth="yes"/>
      <point x="293" y="468"/>
      <point x="345" y="436"/>
      <point x="360" y="374" type="curve"/>
      <point x="463" y="374" type="line"/>
      <point x="463" y="528" type="line"/>
      <point x="390" y="528" type="line"/>
      <point x="390" y="390" type="line"/>
      <point x="403" y="406" type="line"/>
      <point x="397" y="477"/>
      <point x="331" y="538"/>
      <point x="238" y="538" type="curve" smooth="yes"/>
      <point x="132" y="538"/>
      <point x="59" y="477"/>
      <point x="59" y="384" type="curve" smooth="yes"/>
      <point x="59" y="180"/>
      <point x="391" y="264"/>
      <point x="391" y="144" type="curve" smooth="yes"/>
      <point x="391" y="84"/>
      <point x="346" y="59"/>
      <point x="290" y="59" type="curve" smooth="yes"/>
      <point x="213" y="59"/>
      <point x="162" y="95"/>
      <point x="139" y="172" type="curve"/>
      <point x="30" y="172" type="line"/>
      <point x="30" y="0" type="line"/>
      <point x="103" y="0" type="line"/>
      <point x="103" y="156" type="line"/>
    </contour>
  </outline>
</glyph>
<glyph name="two.oldalt" format="1">
  <advance width="590"/>
  <outline>
    <contour>
      <point x="116" y="28" type="curve"/>
      <point x="117" y="70" type="line"/>
      <point x="445" y="70" type="line"/>
      <point x="445" y="70" type="line"/>
      <point x="445" y="166" type="line"/>
      <point x="525" y="166" type="line"/>
      <point x="525" y="0" type="line"/>
      <point x="65" y="0" type="line"/>
      <point x="65" y="72" type="line"/>
      <point x="276" y="188"/>
      <point x="401" y="261"/>
      <point x="401" y="374" type="curve" smooth="yes"/>
      <point x="401" y="431"/>
      <point x="362" y="466"/>
      <point x="298" y="466" type="curve" smooth="yes"/>
      <point x="222" y="466"/>
      <point x="182" y="417"/>
      <point x="167" y="338" type="curve"/>
      <point x="75" y="338" type="line"/>
      <point x="93" y="457"/>
      <point x="173" y="537"/>
      <point x="298" y="537" type="curve" smooth="yes"/>
      <point x="420" y="537"/>
      <point x="493" y="470"/>
      <point x="493" y="374" type="curve" smooth="yes"/>
      <point x="493" y="246"/>
      <point x="355" y="149"/>
    </contour>
  </outline>
</glyph>
<glyph name="y.alt2" format="1">
  <advance width="601"/>
  <outline>
    <contour>
      <point x="253" y="528" type="line"/>
      <point x="5" y="528" type="line"/>
      <point x="5" y="458" type="line"/>
      <point x="81" y="458" type="line"/>
      <point x="81" y="458" type="line"/>
      <point x="168" y="458" type="line"/>
      <point x="168" y="458" type="line"/>
      <point x="253" y="458" type="line"/>
    </contour>
    <contour>
      <point x="327" y="0" type="line"/>
      <point x="335" y="37" type="line"/>
      <point x="140" y="528" type="line"/>
      <point x="52" y="528" type="line"/>
      <point x="266" y="0" type="line"/>
    </contour>
    <contour>
      <point x="358" y="528" type="line"/>
      <point x="358" y="458" type="line"/>
      <point x="444" y="458" type="line"/>
      <point x="444" y="458" type="line"/>
      <point x="522" y="458" type="line"/>
      <point x="522" y="458" type="line"/>
      <point x="597" y="458" type="line"/>
      <point x="597" y="528" type="line"/>
    </contour>
    <contour>
      <point x="56" y="-151" type="curve"/>
      <point x="56" y="-232" type="line"/>
      <point x="214" y="-233"/>
      <point x="274" y="-156"/>
      <point x="344" y="17" type="curve" smooth="yes"/>
      <point x="550" y="528" type="line"/>
      <point x="471" y="528" type="line"/>
      <point x="285" y="61" type="line" smooth="yes"/>
      <point x="216" y="-113"/>
      <point x="172" y="-147"/>
    </contour>
  </outline>
</glyph>
<glyph name="y.alt3" format="1">
  <advance width="601"/>
  <outline>
    <contour>
      <point x="253" y="528" type="line"/>
      <point x="5" y="528" type="line"/>
      <point x="5" y="458" type="line"/>
      <point x="81" y="458" type="line"/>
      <point x="81" y="458" type="line"/>
      <point x="168" y="458" type="line"/>
      <point x="168" y="458" type="line"/>
      <point x="253" y="458" type="line"/>
    </contour>
    <contour>
      <point x="327" y="0" type="line"/>
      <point x="335" y="37" type="line"/>
      <point x="140" y="528" type="line"/>
      <point x="52" y="528" type="line"/>
      <point x="266" y="0" type="line"/>
    </contour>
    <contour>
      <point x="358" y="528" type="line"/>
      <point x="358" y="458" type="line"/>
      <point x="444" y="458" type="line"/>
      <point x="444" y="458" type="line"/>
      <point x="522" y="458" type="line"/>
      <point x="522" y="458" type="line"/>
      <point x="597" y="458" type="line"/>
      <point x="597" y="528" type="line"/>
    </contour>
    <contour>
      <point x="63" y="-102" type="curve"/>
      <point x="-18" y="-102" type="line"/>
      <point x="-4" y="-198"/>
      <point x="58" y="-237"/>
      <point x="130" y="-237" type="curve" smooth="yes"/>
      <point x="227" y="-237"/>
      <point x="280" y="-141"/>
      <point x="344" y="17" type="curve" smooth="yes"/>
      <point x="550" y="528" type="line"/>
      <point x="471" y="528" type="line"/>
      <point x="285" y="61" type="line" smooth="yes"/>
      <point x="229" y="-79"/>
      <point x="196" y="-165"/>
      <point x="129" y="-165" type="curve" smooth="yes"/>
      <point x="97" y="-165"/>
      <point x="73" y="-150"/>
    </contour>
  </outline>
</glyph>
